<svg xmlns="http://www.w3.org/2000/svg" viewBox="0 0 307.14 307.14"><defs><style>.cls-1,.cls-2{fill:#e53838;}.cls-1{opacity:0;}.cls-2,.cls-3,.cls-4{stroke:#020000;stroke-miterlimit:10;}.cls-2,.cls-3{stroke-width:8px;}.cls-3{fill:#fcfcfc;}.cls-4{fill:#fff;stroke-width:12px;}</style></defs><title>pokeball-error</title><g id="Layer_2" data-name="Layer 2"><rect class="cls-1" width="307.14" height="307.14"/></g><g id="Layer_1" data-name="Layer 1"><circle class="cls-2" cx="153.57" cy="125.61" r="80.18"/><path class="cls-3" d="M233.75,125.61a80.18,80.18,0,0,1-160.36,0Z"/><circle class="cls-4" cx="153.57" cy="125.61" r="26.32"/><path d="M60.5,247.56V244l6.74-10.6h3.19v4.72H68.61L65,243.9V244h10v3.53Zm8.13,2.6v-3.68l.11-1.55v-11.5H73v16.73Z"/><path d="M83.88,250.39a7.46,7.46,0,0,1-4-1,6.7,6.7,0,0,1-2.53-2.94,12.62,12.62,0,0,1,0-9.26,6.59,6.59,0,0,1,2.53-2.94,8.2,8.2,0,0,1,8,0,6.55,6.55,0,0,1,2.53,3,12.59,12.59,0,0,1,0,9.25,6.61,6.61,0,0,1-2.52,2.94A7.44,7.44,0,0,1,83.88,250.39Zm0-3.69a2,2,0,0,0,1.46-.56,3.47,3.47,0,0,0,.9-1.65,11.83,11.83,0,0,0,0-5.38,3.55,3.55,0,0,0-.9-1.67,2.14,2.14,0,0,0-2.91,0,3.55,3.55,0,0,0-.91,1.67,9.92,9.92,0,0,0-.31,2.7,10.32,10.32,0,0,0,.3,2.68,3.47,3.47,0,0,0,.9,1.65A2.06,2.06,0,0,0,83.88,246.7Z"/><path d="M93,247.56V244l6.74-10.6h3.19v4.72h-1.82l-3.64,5.75V244h10v3.53Zm8.13,2.6v-3.68l.11-1.55v-11.5h4.25v16.73Z"/><path d="M112.5,242.74a2.31,2.31,0,0,1-1.66-.65,2.34,2.34,0,0,1,0-3.26,2.43,2.43,0,0,1,3.31,0,2.34,2.34,0,0,1,0,3.26A2.3,2.3,0,0,1,112.5,242.74Zm0,7.69a2.31,2.31,0,0,1-1.66-.65,2.34,2.34,0,0,1,0-3.26,2.43,2.43,0,0,1,3.31,0,2.34,2.34,0,0,1,0,3.26A2.3,2.3,0,0,1,112.5,250.43Z"/><path d="M122.45,250.16V233.43h4.94l4,6.57c.35.57.67,1.14,1,1.71a19.65,19.65,0,0,1,.87,1.88c.28.68.57,1.48.86,2.39h-.39c0-.6-.09-1.3-.14-2.1s-.11-1.58-.16-2.36-.06-1.43-.06-2v-6.13H138v16.73h-4.94l-3.72-6.11q-.63-1-1.11-2c-.31-.6-.62-1.24-.92-1.91l-1-2.34h.47c.06.79.12,1.57.17,2.35s.1,1.5.14,2.17.05,1.23.05,1.68v6.11Z"/><path d="M146.27,250.39a7,7,0,0,1-3.51-.82,5.54,5.54,0,0,1-2.23-2.27,7.83,7.83,0,0,1,0-6.77,5.6,5.6,0,0,1,2.23-2.27,7.14,7.14,0,0,1,3.51-.81,7.06,7.06,0,0,1,3.49.81,5.64,5.64,0,0,1,2.22,2.27,7.83,7.83,0,0,1,0,6.77,5.58,5.58,0,0,1-2.22,2.27A7,7,0,0,1,146.27,250.39Zm0-3.37a1.51,1.51,0,0,0,1-.37,2.39,2.39,0,0,0,.65-1.08,6.49,6.49,0,0,0,0-3.35,2.29,2.29,0,0,0-.65-1,1.5,1.5,0,0,0-1-.36,1.56,1.56,0,0,0-1,.36,2.29,2.29,0,0,0-.65,1,6.49,6.49,0,0,0,0,3.35,2.39,2.39,0,0,0,.65,1.08A1.57,1.57,0,0,0,146.27,247Z"/><path d="M161.93,237.61v3.28h-8.26v-3.28Zm-6.67-3h4.52v11.51a.77.77,0,0,0,.2.59.9.9,0,0,0,.65.2c.13,0,.33,0,.59,0a3.39,3.39,0,0,0,.51-.1l.54,3.22a8.55,8.55,0,0,1-1.46.29,11.91,11.91,0,0,1-1.29.07,4.66,4.66,0,0,1-3.19-1,3.65,3.65,0,0,1-1.07-2.84Z"/><path d="M168.29,250.16V233.43h11.77v3.66h-7.23v3.77h6.51v3.57h-6.51v5.73Z"/><path d="M186.93,250.39a7,7,0,0,1-3.5-.82,5.42,5.42,0,0,1-2.23-2.27,7.83,7.83,0,0,1,0-6.77,5.48,5.48,0,0,1,2.23-2.27,7.95,7.95,0,0,1,7,0,5.51,5.51,0,0,1,2.22,2.27,7.83,7.83,0,0,1,0,6.77,5.46,5.46,0,0,1-2.22,2.27A6.93,6.93,0,0,1,186.93,250.39Zm0-3.37a1.51,1.51,0,0,0,1-.37,2.38,2.38,0,0,0,.64-1.08,6.21,6.21,0,0,0,0-3.35,2.28,2.28,0,0,0-.64-1,1.61,1.61,0,0,0-2,0,2.29,2.29,0,0,0-.65,1,6.21,6.21,0,0,0,0,3.35,2.39,2.39,0,0,0,.65,1.08A1.52,1.52,0,0,0,186.93,247Z"/><path d="M199.63,250.32a4.28,4.28,0,0,1-2.31-.61,4.05,4.05,0,0,1-1.53-1.67,5.31,5.31,0,0,1-.54-2.44v-8h4.52v7a2.13,2.13,0,0,0,.47,1.47,1.69,1.69,0,0,0,1.32.53,1.86,1.86,0,0,0,1-.24,1.62,1.62,0,0,0,.63-.69,2.38,2.38,0,0,0,.22-1.07v-7h4.52v12.55h-4.24l-.09-3.21h.14a5.74,5.74,0,0,1-1.39,2.4A3.59,3.59,0,0,1,199.63,250.32Z"/><path d="M214.71,243.11v7h-4.52V237.61h4.23l.09,3.21h-.13a5.64,5.64,0,0,1,1.39-2.4,3.59,3.59,0,0,1,2.69-1,4.3,4.3,0,0,1,2.32.61,4.1,4.1,0,0,1,1.52,1.67,5.31,5.31,0,0,1,.54,2.44v8h-4.52v-7a2.18,2.18,0,0,0-.47-1.47,1.7,1.7,0,0,0-1.33-.53,1.9,1.9,0,0,0-1,.24,1.62,1.62,0,0,0-.63.69A2.32,2.32,0,0,0,214.71,243.11Z"/><path d="M229.62,250.32a4.6,4.6,0,0,1-2.47-.7,4.9,4.9,0,0,1-1.8-2.13,10,10,0,0,1,0-7.29,4.92,4.92,0,0,1,1.83-2.09,4.6,4.6,0,0,1,2.36-.66,4,4,0,0,1,1.64.32,3.53,3.53,0,0,1,1.18.86,3.68,3.68,0,0,1,.71,1.18h.07v-6.38h4.51v16.73h-4.47V248.1h-.11a3.67,3.67,0,0,1-.74,1.14,3.6,3.6,0,0,1-1.17.79A4.07,4.07,0,0,1,229.62,250.32Zm1.66-3.46a1.67,1.67,0,0,0,1.07-.36,2.34,2.34,0,0,0,.69-1,4.63,4.63,0,0,0,.24-1.57,4.69,4.69,0,0,0-.24-1.6,2.23,2.23,0,0,0-.69-1,1.67,1.67,0,0,0-1.07-.36,1.64,1.64,0,0,0-1.06.36,2.19,2.19,0,0,0-.66,1,5.61,5.61,0,0,0,0,3.18,2.19,2.19,0,0,0,.66,1A1.69,1.69,0,0,0,231.28,246.86Z"/><path d="M243.21,250.43a2.5,2.5,0,0,1-1.75-.6,2.09,2.09,0,0,1-.66-1.63,2.11,2.11,0,0,1,.66-1.64,2.85,2.85,0,0,1,3.5,0,2.14,2.14,0,0,1,.65,1.64,2.12,2.12,0,0,1-.65,1.63A2.48,2.48,0,0,1,243.21,250.43Zm-2.05-5.5-.33-11.5h4.76l-.34,11.5Z"/></g></svg>